<svg xmlns="http://www.w3.org/2000/svg" width="614.679" height="147.627" viewBox="0 0 614.679 147.627">
  <g id="Group_21" data-name="Group 21" transform="translate(0 6.296)">
    <path id="path14" d="M41.752-192.49H96.261v36.29H41.752Zm0-18.031v-38.317h93.48L95.8-210.521ZM0-208.267l41.752-40.571v147.625H0V-208.267" transform="translate(0 242.542)" fill="#acacac"/>
    <path id="path16" d="M105.771-149.218,208.3-248.838h36.185v147.625H202.729v-18.93H136.852L174.2-156.2h28.531v-39.22l-96.958,94.209v-48" transform="translate(0 242.542)" fill="#acacac"/>
    <path id="path18" d="M296.906-210.973l41.752-37.865v147.625H296.906Zm-38.275.452,39.433-38.317h93.48l-39.436,38.317H258.631" transform="translate(0 242.542)" fill="#acacac"/>
    <path id="path20" d="M396.644-210.521l10.439-38.317H500.56l-39.435,38.317ZM461.59-101.213v-36.96H395.483l11.6,36.96Zm0-54.989V-192.49H393.163l13.92,36.288Zm-96.261-52.065,41.755-40.571v147.625H365.328V-208.267" transform="translate(0 242.542)" fill="#acacac"/>
    <path id="path22" d="M570.607-248.838h44.072v147.625H570.607Zm11.6,92.409-2.319-36.061H509.139l-2.319,36.061ZM474.346-208.267,516.1-248.838v147.625H474.346V-208.267" transform="translate(0 242.542)" fill="#acacac"/>
  </g>
</svg>
