<svg xmlns="http://www.w3.org/2000/svg" width="791.195" height="148.081" viewBox="0 0 791.195 148.081">
  <g id="Group_22" data-name="Group 22" transform="translate(-690.99 6.525)">
    <path id="path24" d="M732.744-192.49H787.25v36.29H732.744Zm0-18.031v-38.317h93.478l-39.436,38.317Zm-41.753,2.253,41.753-40.571v147.625H690.99V-208.267" transform="translate(0 242.542)" fill="#acacac"/>
    <path id="path26" d="M798.387-208.267l41.753-40.571v147.625H798.387V-208.267" transform="translate(0 242.542)" fill="#acacac"/>
    <path id="path28" d="M890.939-210.973l41.751-37.865v147.625H890.939Zm-38.273.452L892.1-248.838h93.478l-39.435,38.317H852.666" transform="translate(0 242.542)" fill="#acacac"/>
    <path id="path30" d="M1099.93-101.213,994.156-203.306l6.961-45.983,54.276,53.416v-53.416h44.536ZM959.362-208.267l41.756-40.571v147.625H959.362V-208.267" transform="translate(0 242.768)" fill="#acacac"/>
    <path id="path32" d="M1143.07-210.521l10.437-38.317h93.478l-39.435,38.317Zm64.947,109.307v-36.96h-66.108l11.6,36.96Zm0-54.989V-192.49h-68.429l13.92,36.288Zm-96.264-52.065,41.755-40.571v147.625h-41.755V-208.267" transform="translate(0 242.542)" fill="#acacac"/>
    <path id="path34" d="M1261.13-203.306v1.348a7.3,7.3,0,0,0,3.829,6.876,21.325,21.325,0,0,0,8.464,2.592,11.329,11.329,0,0,0,2.2.224h2.2q22.034,0,35.606,12.847a42.786,42.786,0,0,1,13.8,31.78q.464,18.71-13.455,32.339a47.4,47.4,0,0,1-33.169,14.087q-4.872.227-10.439.339t-11.365.113h-5.8q-6.262,0-12.06-.113t-10.209-.112q-4.41,0-9.973-.227v-36.96c0,.147,1.816.227,5.452.227h13.8q4.4.22,9.393.224h27.025a8.281,8.281,0,0,0,6.609-2.817,9.268,9.268,0,0,0,2.436-6.2v-.9a7.536,7.536,0,0,0-2.9-5.86q-2.672-2.032-8-2.031-22.264,0-37-13.777t-14.728-33.441v-1.8q.924-18.746,15.193-31.517a48.659,48.659,0,0,1,33.519-12.767h93.943l-39.667,38.544q0,.22-5.565.224t-13.919-.224H1270.17a10.314,10.314,0,0,0-5.912,1.8,7.293,7.293,0,0,0-3.135,5.407v-.219" transform="translate(0 242.316)" fill="#acacac"/>
    <path id="path36" d="M1377.81-203.306v1.348a7.281,7.281,0,0,0,3.827,6.876,21.3,21.3,0,0,0,8.467,2.592,11.3,11.3,0,0,0,2.2.224h2.2q22.04,0,35.613,12.847a42.82,42.82,0,0,1,13.8,31.78q.46,18.71-13.453,32.339a47.4,47.4,0,0,1-33.173,14.087q-4.86.227-10.44.339-5.56.108-11.36.113h-5.8q-6.26,0-12.067-.113t-10.2-.112q-4.42,0-9.973-.227v-36.96c0,.147,1.813.227,5.453.227h13.8q4.4.22,9.387.224h27.027a8.287,8.287,0,0,0,6.613-2.817,9.245,9.245,0,0,0,2.427-6.2v-.9a7.507,7.507,0,0,0-2.893-5.86q-2.68-2.032-8-2.031-22.26,0-37-13.777t-14.733-33.441v-1.8a43.721,43.721,0,0,1,15.2-31.517,48.648,48.648,0,0,1,33.52-12.767h93.933l-39.667,38.544q0,.22-5.56.224t-13.92-.224H1386.85a10.308,10.308,0,0,0-5.907,1.8,7.268,7.268,0,0,0-3.133,5.407v-.219" transform="translate(0 242.316)" fill="#acacac"/>
  </g>
</svg>
