<svg xmlns="http://www.w3.org/2000/svg" width="1390.718" height="557.285" viewBox="0 0 1390.718 557.285">
  <g id="Group_20" data-name="Group 20" transform="translate(-5907.775 3341.421)">
    <g id="g10" transform="translate(5863.041 -2505.467)">
      <g id="g12" transform="translate(-4)">
        <path id="path120" d="M295.63-573.424l1.36,32.443-1.344-32.443Z" fill="#ed1c24"/>
        <g id="Group_16" data-name="Group 16" transform="translate(9 4.003)">
          <path id="path98" d="M297.682-523.62l8.328,200.384c.963,23.307,20.268,41.447,43.065,40.531l15.535-.619c22.839-.96,40.552-20.6,39.591-43.9l-7.232-174.77c-37.013,2.667-70.224,6.336-97.882,11.236l-1.4-32.863" fill="#ed1c24"/>
          <path id="path100" d="M386.688-750.981c-.956-23.333-20.276-41.445-43.109-40.521l-15.5.616c-22.815.888-40.588,20.537-39.62,43.873l7.183,173.589c.159,0,38.015-.405,98.329-.8l-7.287-176.756" fill="#ed1c24"/>
          <path id="path102" d="M226.91-748.482l-15.511.616c-22.819.923-40.688,17.763-39.873,37.6L186.478-349.34c.809,19.819,20.035,35.143,42.836,34.256l15.527-.652c22.815-.948,40.676-17.788,39.839-37.633L269.747-714.224c-.809-19.876-20-35.181-42.837-34.259" transform="translate(-1)" fill="#ed1c24"/>
          <path id="path104" d="M112.487-657.222l-14.451.575c-21.269.856-38.136,11.261-37.646,23.261l2.569,62.005-3.409.123c-11.141.421-19.986,4.449-19.814,8.937l3.355,81.43c.192,4.448,9.348,7.752,20.469,7.253l3.429-.112,2.417,58.48c.508,12,18.168,20.988,39.475,20.136l14.445-.543c21.3-.939,38.171-11.319,37.7-23.328l-9.061-218.07c-.483-11.975-18.165-21.067-39.482-20.148" fill="#ed1c24"/>
          <path id="path116" d="M393.975-574.225l1.2,29.472,53.36-2.057.717,17.269-53.309,2.088,1.028,25.46c38.675-2.736,81.562-4.363,126.758-5.137a225.216,225.216,0,0,1-11.052-67.709c-44.748.155-85.224.384-118.7.615" fill="#ed1c24"/>
          <path id="path118" d="M295.646-573.424l1.344,32.443,98.182-3.772-1.2-29.472c-60.314.4-98.17.8-98.329.8" fill="#ed1c24"/>
          <path id="path122" d="M297.682-523.62l1.4,32.863c27.659-4.9,60.869-8.569,97.882-11.236l-1.028-25.46-98.258,3.833" fill="#ed1c24"/>
        </g>
        <g id="Group_17" data-name="Group 17" transform="translate(955.459 -787.533)">
          <path id="path98-2" data-name="path98" d="M404.238-523.62,395.91-323.237c-.963,23.307-20.268,41.447-43.065,40.531l-15.535-.619c-22.839-.96-40.552-20.6-39.591-43.9l7.232-174.77c37.013,2.667,70.224,6.336,97.882,11.236l1.4-32.863" transform="translate(-178.193 791.536)" fill="#ed1c24"/>
          <path id="path100-2" data-name="path100" d="M295.712-750.981c.956-23.333,20.276-41.445,43.109-40.521l15.5.616c22.815.888,40.588,20.537,39.62,43.873l-7.183,173.589c-.159,0-38.015-.405-98.329-.8l7.287-176.756" transform="translate(-158.674 791.536)" fill="#ed1c24"/>
          <path id="path102-2" data-name="path102" d="M229.3-748.482l15.511.616c22.819.923,40.688,17.763,39.873,37.6L269.729-349.341c-.809,19.819-20.035,35.143-42.836,34.256l-15.527-.652c-22.815-.948-40.676-17.788-39.839-37.633L186.46-714.224c.809-19.876,20-35.181,42.837-34.259" transform="translate(68.52 791.536)" fill="#ed1c24"/>
          <path id="path104-2" data-name="path104" d="M88.287-657.222l14.451.575c21.269.856,38.136,11.261,37.646,23.261l-2.569,62.005,3.409.123c11.141.421,19.986,4.449,19.814,8.937l-3.355,81.43c-.192,4.448-9.348,7.752-20.469,7.253l-3.429-.112-2.417,58.48c-.508,12-18.168,20.988-39.475,20.136l-14.445-.543C56.146-396.615,39.277-407,39.743-419L48.8-637.074c.483-11.975,18.165-21.067,39.482-20.148" transform="translate(322.953 791.536)" fill="#ed1c24"/>
          <path id="path116-2" data-name="path116" d="M523.727-574.225l-1.2,29.472-53.36-2.057-.717,17.269,53.309,2.088-1.028,25.46c-38.675-2.736-81.562-4.363-126.758-5.137a225.215,225.215,0,0,0,11.052-67.709c44.748.155,85.224.384,118.7.615" transform="translate(-393.975 791.536)" fill="#ed1c24"/>
          <path id="path118-2" data-name="path118" d="M395.172-573.424l-1.344,32.443-98.182-3.772,1.2-29.472c60.314.4,98.17.8,98.329.8" transform="translate(-167.092 791.536)" fill="#ed1c24"/>
          <path id="path122-2" data-name="path122" d="M396.968-523.62l-1.4,32.863c-27.659-4.9-60.869-8.569-97.882-11.236l1.028-25.46,98.258,3.833" transform="translate(-170.924 791.536)" fill="#ed1c24"/>
        </g>
        <path id="path128" d="M1184.7-529.951l1.748-32.153a.123.123,0,0,0-.031-.011l-1.717,32.164" fill="#ed1c24"/>
        <path id="path130" d="M748.3-803.579a193.692,193.692,0,0,1,115.76,37.121h47.511a226.458,226.458,0,0,0-163.47-68.07,226.342,226.342,0,0,0-162.566,70.04l47.505-.315A193.9,193.9,0,0,1,748.3-803.579" transform="translate(-6.949 -6.563) rotate(0.5)" fill="#ed1c24"/>
        <g id="Group_18" data-name="Group 18" transform="translate(9 -0.409)">
          <path id="path132" d="M543.341-577.944l-27.8-35.181a227.839,227.839,0,0,0-2.883,37.619c0,.225.016.441.02.667,10.02-.031,20.209-.065,30.64-.092.012-1.005,0-2.016.027-3.012" transform="translate(-20 -23)" fill="#ed1c24"/>
          <path id="path134" d="M709.714-352.8l-24.392-30.593C624.484-401,575.7-447.595,554.608-507.52c-10.384.1-20.707.211-30.881.389A226.762,226.762,0,0,0,709.714-352.8" transform="translate(-21.125 -25.263)" fill="#ed1c24"/>
          <path id="path136" d="M543.315-574.932c-10.431.027-20.62.061-30.64.092a225.218,225.218,0,0,0,11.052,67.709c10.175-.179,20.5-.292,30.881-.389A199.865,199.865,0,0,1,543.3-572.664c0-.76.016-1.508.016-2.268" transform="translate(-19.915 -24)" fill="#ed1c24"/>
        </g>
        <g id="Group_19" data-name="Group 19" transform="translate(796.519 -636.533)">
          <path id="path132-2" data-name="path132" d="M512.65-577.944l27.8-35.181a227.839,227.839,0,0,1,2.883,37.619c0,.225-.016.441-.02.667-10.02-.031-20.209-.065-30.64-.092-.012-1.005,0-2.016-.027-3.012" transform="translate(-347.402 613.125)" fill="#ed1c24"/>
          <path id="path134-2" data-name="path134" d="M523.727-352.8l24.392-30.593C608.957-401,657.741-447.595,678.833-507.52c10.384.1,20.707.211,30.881.389A226.762,226.762,0,0,1,523.727-352.8" transform="translate(-523.727 610.862)" fill="#ed1c24"/>
          <path id="path136-2" data-name="path136" d="M523.968-574.932c10.431.027,20.62.061,30.64.092a225.219,225.219,0,0,1-11.052,67.709c-10.175-.179-20.5-.292-30.881-.389a199.866,199.866,0,0,0,11.309-65.144c0-.76-.016-1.508-.016-2.268" transform="translate(-358.779 612.125)" fill="#ed1c24"/>
        </g>
        <path id="path144" d="M1058.809-747.357h-302.9V-356.6l74.472-95.677V-595.943h115.83l40.577-52.692H829.634l-.247-38.395h176.03l53.392-60.328" transform="translate(-2.68 -5.224)" fill="#acacac"/>
        <path id="path146" d="M437.527-747.357h302.9V-356.6l-74.473-95.677V-595.943H550.127l-40.577-52.692H666.7l.247-38.395H490.919l-53.392-60.328" transform="translate(3.452 -5.224)" fill="#acacac"/>
      </g>
    </g>
  </g>
</svg>
