<svg id="Layer_5" enable-background="new 0 0 64 64" height="512" viewBox="0 0 64 64" width="512" xmlns="http://www.w3.org/2000/svg"><path d="m59.496 28.379c-.559-2.624-1.574-5.079-3.025-7.318l1.887-3.059-5.361-5.361-3.059 1.887c-2.239-1.451-4.695-2.466-7.318-3.025l-.829-3.503h-7.582l-.83 3.504c-2.658.567-5.144 1.602-7.407 3.083l-2.054-.861-2.733 2.733c-.59-.292-1.199-.55-1.831-.757 2.191-1.428 3.646-3.897 3.646-6.702 0-4.411-3.589-8-8-8s-8 3.589-8 8c0 2.805 1.455 5.274 3.646 6.702-5.593 1.836-9.646 7.099-9.646 13.298v7c0 2.757 2.243 5 5 5h1v17.5c0 2.481 2.019 4.5 4.5 4.5 1.421 0 2.675-.675 3.5-1.706.825 1.031 2.079 1.706 3.5 1.706 2.481 0 4.5-2.019 4.5-4.5v-5.016l3.076-2.003c2.235 1.446 4.687 2.458 7.303 3.016l.83 3.503h7.582l.83-3.504c2.623-.559 5.079-1.574 7.318-3.025l3.059 1.888 5.361-5.361-1.887-3.059c1.451-2.239 2.466-4.695 3.025-7.317l3.503-.831v-7.582zm-50.496-19.379c0-3.309 2.691-6 6-6s6 2.691 6 6-2.691 6-6 6-6-2.691-6-6zm9.5 52c-1.378 0-2.5-1.121-2.5-2.5v-22.5h-2v22.5c0 1.379-1.122 2.5-2.5 2.5s-2.5-1.121-2.5-2.5v-34.5h-2v15h-1c-1.654 0-3-1.346-3-3v-7c0-6.617 5.383-12 12-12s12 5.383 12 12v7c0 1.654-1.346 3-3 3h-.824c-.059-.145-.121-.287-.176-.434v-8.431l.415-.346c1.007-.839 1.585-2.073 1.585-3.384 0-2.429-1.976-4.405-4.405-4.405h-.184c-.869 0-1.7.25-2.411.716-.71-.466-1.542-.716-2.411-.716h-.184c-2.429 0-4.405 1.976-4.405 4.405 0 1.311.578 2.544 1.585 3.384l5.415 4.513 3-2.5v26.698c0 1.379-1.122 2.5-2.5 2.5zm3.635-32.747-4.135 3.445-4.135-3.445c-.55-.459-.865-1.132-.865-1.848 0-1.326 1.079-2.405 2.405-2.405h.184c.643 0 1.247.25 1.701.705l.712.707.707-.707c.455-.455 1.059-.705 1.702-.705h.184c1.326 0 2.405 1.079 2.405 2.405 0 .716-.315 1.389-.865 1.848zm6.865 7.747v-4h3.382l3.84 7.68 3.649-11.861 3.788 16.099 4.959-9.918h5.331c-.52 8.356-7.464 15-15.949 15-5.771 0-11.036-3.132-13.857-8.014 2.689-.078 4.857-2.278 4.857-4.986zm18.382-4-3.041 6.082-4.212-17.901-4.351 14.139-2.16-4.32h-4.618v-1c0-2.733-.799-5.278-2.159-7.436 2.975-2.899 6.991-4.564 11.159-4.564 8.485 0 15.429 6.644 15.949 15zm13.618 3.209-3.226.765-.118.643c-.512 2.802-1.587 5.403-3.197 7.732l-.372.537 1.738 2.816-3.125 3.123-2.815-1.737-.538.372c-2.328 1.608-4.93 2.685-7.732 3.196l-.643.117-.763 3.227h-4.418l-.765-3.227-.643-.117c-2.802-.512-5.403-1.588-7.732-3.196l-.551-.382-3.1 2.019v-8.152c3.287 4.94 8.894 8.055 15 8.055 9.925 0 18-8.075 18-18s-8.075-18-18-18c-4.594 0-9.023 1.798-12.349 4.936-.785-.921-1.685-1.74-2.682-2.432l1.414-1.414 1.818.762.45-.311c2.329-1.608 4.93-2.684 7.732-3.197l.643-.118.765-3.226h4.418l.764 3.226.643.118c2.802.513 5.404 1.588 7.732 3.197l.538.371 2.815-1.737 3.125 3.125-1.738 2.815.372.538c1.609 2.328 2.685 4.93 3.197 7.732l.118.643 3.225.763z"/><path d="m31.116 42.83c-.5-.35-.979-.743-1.424-1.171l-1.385 1.443c.519.498 1.078.958 1.662 1.366z"/><path d="m34.415 44.456c-.583-.183-1.159-.413-1.71-.685l-.885 1.793c.645.318 1.317.587 1.999.8z"/><path d="m38 45c-.6 0-1.202-.045-1.788-.133l-.297 1.979c.685.102 1.386.154 2.141.154z"/></svg>