<?xml version="1.0" standalone="no"?>
<!DOCTYPE svg PUBLIC "-//W3C//DTD SVG 20010904//EN"
 "http://www.w3.org/TR/2001/REC-SVG-20010904/DTD/svg10.dtd">
<svg version="1.0" xmlns="http://www.w3.org/2000/svg"
 width="452.000000pt" height="452.000000pt" viewBox="0 0 452.000000 452.000000"
 preserveAspectRatio="xMidYMid meet">

<g transform="translate(0.000000,452.000000) scale(0.100000,-0.100000)"
fill="#000000" stroke="none">
<path d="M935 4330 c-158 -33 -273 -122 -341 -265 -132 -277 3 -608 283 -695
136 -42 325 -21 434 48 305 194 297 674 -14 856 -90 53 -253 78 -362 56z m225
-191 c31 -9 63 -31 101 -69 68 -68 92 -130 92 -238 -1 -61 -6 -83 -32 -137
-57 -115 -141 -165 -281 -165 -142 0 -232 55 -285 172 -84 188 11 400 202 448
48 12 144 7 203 -11z"/>
<path d="M2275 3482 c-27 -11 -147 -66 -265 -123 l-215 -104 -630 -5 -630 -5
-53 -27 c-202 -104 -298 -322 -247 -562 l17 -83 -66 -326 c-36 -179 -66 -347
-66 -373 0 -63 24 -163 51 -217 12 -23 59 -160 105 -304 l83 -263 -45 -292
c-47 -309 -49 -346 -14 -425 25 -58 95 -130 155 -161 41 -22 64 -26 130 -26
73 -1 85 2 145 35 73 40 131 107 155 179 17 51 105 643 105 705 0 23 -9 92
-21 154 -11 62 -19 114 -17 116 2 1 53 -52 113 -118 l110 -120 5 -371 c5 -343
6 -374 25 -411 72 -145 268 -213 416 -144 71 33 125 87 158 158 l26 56 0 470
c0 451 -1 471 -20 507 -11 20 -107 138 -212 262 -106 123 -193 227 -193 230 0
3 56 6 124 6 138 0 169 8 240 58 l50 35 120 -7 c148 -9 258 -27 368 -62 176
-56 272 -120 492 -332 209 -201 283 -266 380 -331 237 -160 495 -239 854 -261
172 -10 204 -4 227 41 19 35 19 53 0 89 -20 38 -64 50 -185 50 -229 0 -475 53
-652 140 -143 71 -210 124 -443 350 -88 85 -200 185 -249 221 -211 159 -465
250 -745 267 l-106 7 -7 49 c-13 94 -99 189 -196 216 -20 5 -108 10 -194 10
-120 0 -158 3 -158 13 0 6 9 64 20 127 11 63 20 118 20 123 0 4 129 7 287 7
l287 0 296 141 c162 78 311 154 331 170 54 42 91 119 97 200 l5 67 41 10 c129
32 240 19 345 -40 80 -45 202 -174 301 -317 250 -364 321 -453 429 -535 118
-90 222 -133 353 -143 76 -6 77 -5 107 25 40 40 42 83 3 121 -23 23 -39 29
-100 34 -185 18 -316 127 -536 448 -202 294 -259 364 -365 450 -137 111 -243
149 -412 148 -73 0 -130 -7 -189 -22 l-85 -22 -43 24 c-59 32 -150 38 -217 13z
m156 -191 c36 -36 38 -79 7 -115 -14 -15 -136 -80 -295 -156 l-272 -130 -316
0 c-196 0 -324 -4 -335 -10 -32 -17 -41 -45 -74 -244 -24 -142 -35 -192 -46
-193 -10 -2 -49 54 -110 154 -114 190 -126 203 -179 203 -32 0 -44 -6 -65 -31
-14 -17 -26 -41 -26 -53 0 -13 22 -58 48 -102 172 -283 204 -333 220 -341 9
-4 156 -10 325 -13 l309 -5 24 -28 c26 -31 32 -81 11 -108 -29 -38 -46 -39
-470 -39 l-415 0 -170 264 c-94 145 -177 284 -186 310 -18 53 -21 163 -6 218
15 54 69 128 118 163 l44 30 631 5 632 5 255 122 c140 67 268 122 283 122 19
1 39 -9 58 -28z m-1907 -1161 c65 -102 129 -195 143 -207 23 -22 30 -23 246
-23 l222 -1 245 -286 245 -287 3 -401 c2 -220 0 -419 -3 -442 -17 -119 -163
-162 -239 -72 l-26 31 -1 366 c-1 202 -4 377 -7 389 -7 23 -343 394 -434 478
-41 39 -53 45 -90 45 -24 0 -54 -7 -66 -16 -45 -32 -45 -49 4 -333 l47 -268
-47 -319 c-30 -206 -53 -331 -64 -353 -24 -45 -76 -74 -125 -67 -53 6 -86 31
-108 81 l-19 44 45 292 c25 161 45 302 45 315 0 34 -168 560 -202 630 -46 97
-46 131 1 369 47 237 49 242 60 229 4 -5 61 -92 125 -194z"/>
</g>
</svg>
