<?xml version="1.0" standalone="no"?>
<!DOCTYPE svg PUBLIC "-//W3C//DTD SVG 20010904//EN"
 "http://www.w3.org/TR/2001/REC-SVG-20010904/DTD/svg10.dtd">
<svg version="1.0" xmlns="http://www.w3.org/2000/svg"
 width="64.000000pt" height="64.000000pt" viewBox="0 0 64.000000 64.000000"
 preserveAspectRatio="xMidYMid meet">

<g transform="translate(0.000000,64.000000) scale(0.100000,-0.100000)"
fill="#000000" stroke="none">
<path d="M240 547 c-49 -16 -133 -102 -148 -153 -28 -94 -8 -169 63 -239 101
-102 229 -102 330 0 102 101 102 229 0 330 -70 71 -152 91 -245 62z m165 -36
c72 -32 125 -113 125 -191 0 -110 -100 -210 -210 -210 -111 0 -209 97 -210
208 -1 151 159 255 295 193z"/>
<path d="M250 484 c-41 -18 -80 -52 -80 -71 0 -20 17 -16 45 13 14 14 39 30
55 36 29 10 38 22 22 32 -4 2 -23 -2 -42 -10z"/>
<path d="M321 406 c-87 -48 -50 -186 49 -186 51 0 100 49 100 99 0 75 -83 124
-149 87z m99 -51 c0 -20 -47 -95 -60 -95 -14 0 -12 16 5 50 15 28 14 30 -5 30
-11 0 -20 7 -20 15 0 11 11 15 40 15 29 0 40 -4 40 -15z"/>
<path d="M142 349 c2 -6 8 -10 13 -10 5 0 11 4 13 10 2 6 -4 11 -13 11 -9 0
-15 -5 -13 -11z"/>
</g>
</svg>
