<?xml version="1.0" standalone="no"?>
<!DOCTYPE svg PUBLIC "-//W3C//DTD SVG 20010904//EN"
 "http://www.w3.org/TR/2001/REC-SVG-20010904/DTD/svg10.dtd">
<svg version="1.0" xmlns="http://www.w3.org/2000/svg"
 width="64.000000pt" height="64.000000pt" viewBox="0 0 64.000000 64.000000"
 preserveAspectRatio="xMidYMid meet">

<g transform="translate(0.000000,64.000000) scale(0.100000,-0.100000)"
fill="#000000" stroke="none">
<path d="M497 512 c-22 -24 -22 -71 -1 -101 12 -16 15 -34 10 -62 -7 -42 6
-53 24 -20 14 28 12 73 -5 95 -17 23 -20 62 -5 71 12 8 13 35 2 35 -5 0 -16
-8 -25 -18z"/>
<path d="M26 494 c-20 -20 -20 -68 0 -88 8 -9 28 -16 44 -16 16 0 36 7 44 16
20 20 20 68 0 88 -8 9 -28 16 -44 16 -16 0 -36 -7 -44 -16z m69 -44 c0 -18 -6
-26 -23 -28 -13 -2 -25 3 -28 12 -10 26 4 48 28 44 17 -2 23 -10 23 -28z"/>
<path d="M406 373 c3 -74 2 -71 19 -49 25 33 15 106 -15 106 -4 0 -5 -26 -4
-57z"/>
<path d="M76 328 c-9 -12 -16 -28 -16 -34 0 -28 52 -125 76 -140 25 -17 28
-17 110 24 l84 42 135 0 135 0 0 -85 c0 -73 -3 -86 -19 -95 -12 -6 -97 -10
-206 -10 -244 0 -241 -1 -300 125 -41 88 -66 119 -64 78 1 -34 84 -187 112
-208 26 -18 46 -20 225 -23 237 -4 266 2 282 56 6 20 10 71 8 112 l-3 75 -152
3 -152 3 -82 -41 c-45 -23 -88 -39 -96 -36 -19 8 -65 110 -57 130 9 23 44 20
86 -9 43 -29 48 -30 48 -10 0 22 -70 65 -107 65 -22 0 -37 -7 -47 -22z"/>
</g>
</svg>
