<svg id="Capa_1" enable-background="new 0 0 510.017 510.017" height="512" viewBox="0 0 510.017 510.017" width="512" xmlns="http://www.w3.org/2000/svg"><g><path d="m510.011 218.61c-.926-112.669-113.118-188.045-216.588-150.709-58.626-81.936-176.625-91.34-247.166-19.345-82.871 84.579-49.544 226.056 61.314 265.498v155.96h108.222v-40.993l63.08-63.072c108.05 51.339 232.117-28.423 231.138-147.339zm-350.546-188.577c102.265-1.631 165.502 107.774 117.721 194.871h-231.006c-47.531-86.697 15.028-193.258 113.285-194.871zm26.329 409.982h-48.222v-148.368c-16.551-4.568-42.539-10.554-68.831-36.744h185.884c-25.238 25.14-49.953 31.533-68.832 36.744v148.368zm97.644-105.486-9.933-5.636-57.712 57.705v-72.544c21.926-7.801 41.863-20.304 58.45-36.388l73.903 73.91c-22.519-.043-44.902-5.809-64.708-17.047zm101.876 11.79-91.498-91.507c34.143-48.313 38.077-109.992 14.944-160.453 45.863-14.548 95.889-3.159 131.115 30.926 73.179 70.822 41.304 193.094-54.561 221.034z"/><path d="m455.016 400.015c-30.327 0-55 24.673-55 55s24.673 55 55 55 55-24.673 55-55-24.672-55-55-55zm0 80c-13.785 0-25-11.215-25-25s11.215-25 25-25 25 11.215 25 25-11.214 25-25 25z"/></g></svg>