<svg xmlns="http://www.w3.org/2000/svg" width="462.354" height="137.61" viewBox="0 0 462.354 137.61"><g transform="translate(-18.523 342.907)"><path d="M234.5-340.9c24.2,2.2,41.4,4.3,60.2,7.5,19.5,3.3,53.5,11.5,59.8,14.4,4,1.9,16.3,6,17.8,6,3.2,0,20.8,9.9,27,15.1,20.3,17.2,20.3,31.9-.2,48.1-12.8,10.1-27.5,16.7-53.1,23.6-38.3,10.4-69.6,15.8-111.5,19.2-7.1.5-14.8,1.2-17,1.4-9.2.9,63.2-.4,76.5-1.4,47.6-3.6,79-9,127-21.8,28.5-7.6,55.7-25,58.9-37.6,5.5-22.1-11.9-37.2-60.4-52.7-46.8-14.9-119.1-24.1-187-23.8l-18,.1Zm210.8,59,1.6,4,6-4.1,6.1-4.1,9.7.3,9.8.3-11.2,7.2-11.2,7.2,4.3,7.8c2.4,4.3,4.2,8.1,3.9,8.5-.2.5-4.7.8-9.9.8h-9.5l-2.1-5c-1.9-4.5-4.1-6.4-5-4.1-.1.5-3,2.7-6.2,5-5.9,4.1-6,4.1-14.8,4.1-4.8,0-8.8-.4-8.8-.9s5.4-4.4,12-8.7l11.9-7.8-4-7.3-4-7.3h19.8Z" fill="#eb4427"/><path d="M49.3-299c-7.2,1-10.7,2.6-15,7.2-3.2,3.4-7.2,11-7.3,13.9a5.866,5.866,0,0,0,2,3.4c1.8,1.7,4.7,2,23.2,2.7,11.7.4,21.6,1.2,22.1,1.7s0,1.8-1.2,3c-2,2-3,2.1-18.4,1.9-16.1-.3-16.2-.3-16.1-2.6.1-2.1-.3-2.2-8.7-2.2H21.1l-1.4,4.7c-3.1,10.5-2.2,10.8,29.8,10.8,26,0,26,0,31.6-2.6,5.5-2.6,9.1-6.2,12.3-12.6,2.4-4.8,2-8-1.1-10-2.2-1.5-5.9-1.9-22.9-2.3-11.1-.3-20.5-.8-20.9-1.2-.4-.3-.4-1.6,0-2.7.9-3,6.3-4.1,19.3-4.1,11.6,0,15.8,1,14.8,3.6-.4,1.1,1.1,1.4,8.3,1.4,8.4,0,8.8-.1,9.9-2.5,2.1-4.5,1.5-8.3-1.5-10.2-2.3-1.5-5.5-1.8-23.2-2C64.8-299.8,52.7-299.5,49.3-299Z"/><path d="M272-277.9c-5.8,11.6-10.6,21.5-10.8,22s2.7.9,6.5.9h6.9l3.7-7.3c2-3.9,7.1-13.5,11.2-21.2s7.5-14.3,7.5-14.8c0-.4-3.3-.7-7.3-.7h-7.2Z"/><path d="M317.3-298c-4.1.9-9.7,5.1-12,9-1.4,2.4-2.4,3-5.3,3-3.7,0-4.1.4-7.8,8.2-.2.5,1.3.8,3.3.8h3.7l-2.5,4.2c-1.3,2.4-4.1,7.3-6.1,11l-3.8,6.8h15l4.9-8.8c2.6-4.8,5.2-9.7,5.6-11,.8-2,1.5-2.2,7.6-2.2h6.7l2.2-3.9a22.924,22.924,0,0,0,2.2-4.5c0-.3-3-.6-6.6-.6-4.8,0-6.5-.3-6.2-1.3.7-2.1,5.1-3.7,10-3.7,4.5,0,4.9-.2,6.8-4l2-4-8.2.1A81.594,81.594,0,0,0,317.3-298Z"/><path d="M341.7-294.8c-1.3,2.4-4.5,8.3-7,13.3-2.5,4.9-6.6,12.6-9.1,17a82.728,82.728,0,0,0-4.6,8.7c0,.5,3.3.8,7.3.8h7.2l6.7-12.3c3.7-6.7,8.7-16.6,11.2-22l4.5-9.7H344.2Z"/><path d="M116.3-289.5c-1.5,3.2-2,3.5-6,3.5-4.5,0-4.7.1-6.7,6.7-.7,2-.4,2.3,2.3,2.3,1.7,0,3.1.2,3.1.5a51.549,51.549,0,0,1-2.6,5.6c-3.5,6.7-4.3,13.3-1.8,14.7,6.3,3.3,24.7,2,32.1-2.3,3.5-2.1,8.3-7.8,8.3-9.9,0-.3-2.7-.6-6.1-.6-5.5,0-6.4.3-8.9,3-2.1,2.3-3.7,3-6.4,3-5,0-5.5-2.1-2-8.6l2.9-5.4H147l2-4a26.557,26.557,0,0,0,2-4.5c0-.3-4.7-.5-10.5-.5s-10.5-.2-10.5-.5a17.027,17.027,0,0,1,1.5-3.5l1.6-3H118Z"/><path d="M166.9-284.6c-7.6,2.7-10.3,5.1-15.2,13.1-5.4,9-5.6,11.7-1.4,14.9,2.6,1.9,4.2,2.1,18.5,2.1,17.9,0,23.2-1.3,27.8-6.8l2.7-3.2-6.1-.3c-4.1-.2-7.1.2-9.1,1.3-3.9,2-18.3,2.1-20,.1a3.216,3.216,0,0,1-.5-3c.5-1.3,3.2-1.6,19.2-1.8l18.6-.3,2.4-4.7c3.1-6.1,2.4-9.4-2.3-11.4C197-286.5,172.1-286.5,166.9-284.6Z"/><path d="M225.2-284.5c-6.3,2-10.7,5.8-15.2,13.3-4.3,7.3-5,11.1-2.4,13.6,2.5,2.6,6.1,3.1,20.4,3.1,16.2,0,21.8-1.3,26.9-6.4l3.5-3.6-7.2-.3c-5.3-.2-7.8.1-9.4,1.3-1.6,1-4.6,1.5-9.8,1.5-8.3,0-10.4-.8-9.8-3.6.3-1.8,1.6-1.9,19-2.2l18.7-.2,2.7-5.5c2.5-5.3,2.6-5.6,1-8a10.679,10.679,0,0,0-4.2-3.5C255.6-286.5,230.3-286.1,225.2-284.5Z"/><path d="M367-284.5c-5.6,1.8-11.6,6.6-12.5,10.2a19.1,19.1,0,0,1-2.7,5.6c-3.2,4.4-2.9,9.4.5,12.1,2.6,1.9,4,2.1,18,2.1,18-.1,22.2-1.1,26.8-6.3l3.3-3.7-6.7-.3c-4.8-.2-7.4.1-8.9,1.3-1.6,1-4.6,1.5-10.3,1.5-8.8,0-10.9-.8-10.3-3.6.3-1.8,1.6-1.9,18.7-2.2,20.3-.3,19.6-.1,22.7-7.1,2.1-4.7,1.1-7.9-3.1-9.7C397.9-286.5,373.3-286.4,367-284.5Z"/></g></svg>