<svg xmlns="http://www.w3.org/2000/svg" width="361.615" height="61.361" viewBox="0 0 361.615 61.361"><path d="M85.609,83.111A17.876,17.876,0,0,1,83.7,84.889c-.08,0-2.342,2.175-5.026,4.833-5.088,5.039-12.937,12.665-15.75,15.3-.9.843-3.166,3.058-5.037,4.921a39.154,39.154,0,0,1-3.642,3.389c-.133,0-.241.2-.241.445,0,.543.906.606,1.824.128a9.679,9.679,0,0,1,1.833-.59,2.958,2.958,0,0,0,1.232-.437,3.822,3.822,0,0,1,1.444-.435A3.709,3.709,0,0,0,61.778,112a3.3,3.3,0,0,1,1.333-.449,3.472,3.472,0,0,0,1.333-.44,3.247,3.247,0,0,1,1.278-.439,6.833,6.833,0,0,0,1.5-.455,6.833,6.833,0,0,1,1.5-.455A3.229,3.229,0,0,0,70,109.328a3.717,3.717,0,0,1,1.389-.442,7.942,7.942,0,0,0,1.611-.45,7.371,7.371,0,0,1,1.5-.447,3.119,3.119,0,0,0,1.278-.445,3.852,3.852,0,0,1,1.444-.45,4.078,4.078,0,0,0,1.445-.438A3.582,3.582,0,0,1,80,106.222a3.46,3.46,0,0,0,1.333-.439,3.229,3.229,0,0,1,1.278-.439,6.833,6.833,0,0,0,1.5-.455,6.833,6.833,0,0,1,1.5-.455,2.809,2.809,0,0,0,1.278-.469c0-.1.2-.187.444-.187.439,0,.445-.148.445-11.222,0-6.508-.084-11.223-.2-11.223a13.809,13.809,0,0,0-1.969,1.778m.558,24.036c-.336.123-.611.3-.611.392s-.4.3-.889.461-.889.369-.889.462-.3.236-.676.318a17.233,17.233,0,0,0-2.6,1.129,13.533,13.533,0,0,1-2.213.98c-.161,0-.292.1-.292.219s-.45.332-1,.471-1,.324-1,.412-.4.292-.889.453-.889.362-.889.445-.4.283-.889.444-.889.37-.889.463-.325.238-.722.322a2.977,2.977,0,0,0-1.055.434,4.444,4.444,0,0,1-1.167.548c-.458.147-.833.344-.833.437s-.4.3-.889.463-.889.369-.889.462-.3.236-.676.318a17.277,17.277,0,0,0-2.6,1.129,13.533,13.533,0,0,1-2.213.98c-.161,0-.292.1-.292.219s-.45.332-1,.471-1,.324-1,.412-.4.292-.889.453-.889.362-.889.445-.4.283-.889.444-.888.37-.888.463-.325.238-.723.322a2.977,2.977,0,0,0-1.055.434,4.444,4.444,0,0,1-1.167.548c-.458.147-.833.344-.833.437s-.4.3-.889.463-.889.369-.889.462-.3.236-.676.318a17.277,17.277,0,0,0-2.6,1.129,13.494,13.494,0,0,1-2.213.98c-.16,0-.292.1-.292.219s-.45.332-1,.471-1,.336-1,.438-.4.307-.889.454-.889.334-.889.417-.4.284-.888.445-.889.373-.889.47-.347.242-.77.321a2.118,2.118,0,0,0-1.027.455.848.848,0,0,1-.519.31,26.792,26.792,0,0,0-3.14,2.884,38.847,38.847,0,0,1-3.055,2.889,22.06,22.06,0,0,0-3.712,3.918c0,.262,4.657.309,30.667.309H87.778v-34l-.5.017a4.423,4.423,0,0,0-1.111.241" transform="translate(-26.444 -79.529)" fill="#04aceb" fill-rule="evenodd"/><path d="M258.444,104.444c0,10.756.078,19.556.173,19.556a4.873,4.873,0,0,1,.444,1.709,6.717,6.717,0,0,0,.449,1.833,3.309,3.309,0,0,1,.454,1.069c.152.52.348.945.435.945s.3.315.469.7c.359.81.415.881,2.419,3.022a12.837,12.837,0,0,0,1.666,1.611,1.626,1.626,0,0,1,.587.389,5.731,5.731,0,0,0,1.674,1.2c.31.141.564.337.564.435s.4.3.889.444.889.346.889.444.4.3.888.444.889.335.889.418a3.317,3.317,0,0,0,1.278.437,4.518,4.518,0,0,1,1.389.456,7.086,7.086,0,0,0,1.889.444,12.723,12.723,0,0,1,2.308.521c.693.327,9.985.336,10.205.01a6.9,6.9,0,0,1,2.138-.487,8.09,8.09,0,0,0,2.111-.444,4.555,4.555,0,0,1,1.4-.485,2.879,2.879,0,0,0,1.277-.484c0-.1.45-.3,1-.435s1-.321,1-.406.35-.292.778-.46.778-.374.778-.459.3-.278.667-.43.666-.342.666-.423.275-.31.611-.508a19.927,19.927,0,0,0,3.834-3.849.511.511,0,0,1,.333-.411.524.524,0,0,0,.333-.434,1.854,1.854,0,0,1,.461-.838,2.982,2.982,0,0,0,.583-1.145c.068-.337.2-.614.3-.614a2.89,2.89,0,0,0,.453-1.278,6.032,6.032,0,0,1,.516-1.589c.168-.218.26-6.389.3-20.389l.064-20.077H295.333v17.876c0,10.123-.085,17.928-.2,18a2.559,2.559,0,0,0-.347,1.122,3.223,3.223,0,0,1-.414,1.28,5,5,0,0,0-.6.945c-.481.957-2.476,2.771-3.056,2.777a.256.256,0,0,0-.278.216c0,.118-.4.333-.888.48s-.889.336-.889.422c0,.209-2.3.663-3.358.663a1.566,1.566,0,0,0-.976.222,1.957,1.957,0,0,1-1.124.222c-.543,0-.987-.1-.987-.222s-.445-.222-.989-.222c-1.15,0-3.233-.41-3.233-.637,0-.085-.443-.286-.984-.446a2.117,2.117,0,0,1-1.1-.6.5.5,0,0,0-.4-.317,1.789,1.789,0,0,1-.808-.556,1.74,1.74,0,0,0-.833-.551.311.311,0,0,1-.31-.31,1.741,1.741,0,0,0-.552-.834,1.826,1.826,0,0,1-.556-.785,1.084,1.084,0,0,0-.319-.578c-.714-.714-.8-2.815-.8-20.534V84.889H258.444v19.555m-69.555,8.445v27.778h11.555V130.129c0-5.795.061-10.695.135-10.889.2-.517,10.754-.535,10.754-.018,0,.184.084.334.187.334s.319.4.48.888.361.889.444.889.284.4.445.889.357.889.435.889.269.35.424.778.37.778.48.778.318.4.465.889.343.888.436.888.292.375.442.834a3.519,3.519,0,0,0,.412.944c.078.061.88,1.586,1.784,3.389a27.335,27.335,0,0,0,1.792,3.278c.081,0,.268.4.415.889s.346.889.444.889.3.4.445.889.354.888.462.888.259.292.338.649c.348,1.586.295,1.574,6.776,1.574h5.831l-.151-.611a1.208,1.208,0,0,0-.345-.681,2.032,2.032,0,0,1-.46-.889,3.341,3.341,0,0,0-.411-.93c-.221-.171-10.014-19.86-10.014-20.134,0-.132.4-.36.889-.507s.889-.354.889-.462.306-.263.681-.345a1.24,1.24,0,0,0,.8-.462.464.464,0,0,1,.353-.313,17.232,17.232,0,0,0,3.34-3.389c.079-.213.23-.388.337-.388s.325-.4.487-.889.367-.889.458-.889a2.7,2.7,0,0,0,.441-1.167,4,4,0,0,1,.453-1.283c.76-.5.769-11.264.011-11.761a3.86,3.86,0,0,1-.464-1.289,2.672,2.672,0,0,0-.443-1.167c-.092,0-.333-.375-.537-.833a8.037,8.037,0,0,0-3.441-3.854c-.386-.171-.7-.379-.7-.462a10.155,10.155,0,0,0-3.007-1.424,1.781,1.781,0,0,1-.78-.345,9.263,9.263,0,0,0-2.278-.455,7.164,7.164,0,0,1-2.157-.45c0-.1-6.6-.177-14.666-.177H188.889v27.778M116.222,90.444v4.889h18.222v44.889h12.889V95.333h18.223V85.556H116.222v4.888M334,112.889V140h39.556v-9.556H346.444V116.889h23.112v-9.778H346.444V95.556h26.445V85.778H334v27.111m50.8-26.695a1.551,1.551,0,0,1-.771.323c-1.947.39-3.465,5.354-1.978,6.47a1.622,1.622,0,0,1,.46.624c.08.214.263.389.406.389a.907.907,0,0,1,.543.386c.374.512,3.555.69,4.6.259A3.164,3.164,0,0,0,390,92.336c0-.185.1-.336.222-.336s.222-.63.222-1.444c0-.795-.089-1.445-.2-1.445s-.264-.263-.344-.584a3.334,3.334,0,0,0-2.11-2c-.374-.075-.681-.224-.681-.331,0-.253-2.159-.254-2.315,0m2.463,1.417c1.972.894,2.654,4.852.929,5.4-.226.071-.41.219-.41.329s-.4.307-.892.439a3.288,3.288,0,0,1-3.719-4.864l.5-.8.063,2.389.063,2.389h.881c.792,0,.882-.056.882-.556,0-.305.084-.555.186-.555s.3.25.44.555c.209.459.409.556,1.147.556.918,0,1.222-.472.662-1.031-.159-.16-.149-.536.034-1.221.332-1.24.048-2.271-.654-2.375-.265-.039-.482-.164-.482-.277s-.575-.214-1.278-.223c-.919-.011-1.153-.069-.833-.206a3.549,3.549,0,0,1,2.481.055m-.926,2.167a.462.462,0,0,1-.389.4c-.272.052-.388-.068-.388-.4s.116-.455.388-.4a.462.462,0,0,1,.389.4M217.052,95.043a1.671,1.671,0,0,0,.876.525,5.769,5.769,0,0,1,3.183,4.391c0,.389.1.708.222.708s.223.592.223,1.333-.1,1.333-.223,1.333-.222.235-.222.523a5.251,5.251,0,0,1-.762,2.319,6.587,6.587,0,0,1-5.026,2.856,3.508,3.508,0,0,0-1.545.334,58.7,58.7,0,0,1-6.667.191h-6.667V94.637l8.26.07c6.149.053,8.282.139,8.348.336" transform="translate(-28.829 -81.249)" fill="#3c3c3c" fill-rule="evenodd"/><path fill="#20b0c4" fill-rule="evenodd"/><path fill="#207868" fill-rule="evenodd"/><path fill="#203c6c" fill-rule="evenodd"/></svg>